<?xml version="1.0" encoding="utf-8"?>
<!-- Generator: Adobe Illustrator 21.0.0, SVG Export Plug-In . SVG Version: 6.00 Build 0)  -->
<svg version="1.1" id="图层_1" xmlns="http://www.w3.org/2000/svg" xmlns:xlink="http://www.w3.org/1999/xlink" x="0px" y="0px"
	 viewBox="0 0 595.3 147.9" style="enable-background:new 0 0 595.3 147.9;" xml:space="preserve">
<style type="text/css">
	.st0{fill:#FFFFFF;}
</style>
<g>
	<path class="st0" d="M158.4,26.1h34.1c5.9,0,11,0.6,15.4,1.9c4.4,1.3,8.1,3.1,11,5.3c2.9,2.3,5.1,5,6.6,8.1
		c1.5,3.1,2.2,6.6,2.2,10.3c0,2.6-0.5,5.2-1.5,7.5c-1,2.4-2.4,4.6-4.2,6.6c-1.8,2-4,3.8-6.6,5.4c-2.5,1.6-5.4,2.9-8.5,3.9l32.3,45
		h-24.2l-30.5-42.5h-3.9v42.5h-22.3V26.1z M180.7,69.4h4.8c2.7,0,5.2-0.4,7.6-1.2c2.3-0.8,4.3-1.9,6-3.4c1.7-1.5,3-3.3,4-5.4
		c1-2.1,1.5-4.5,1.5-7.2c0-2.5-0.4-4.7-1.1-6.8c-0.7-2.1-1.8-3.9-3.1-5.4c-1.3-1.5-2.9-2.7-4.7-3.5c-1.8-0.8-3.8-1.3-6-1.3h-9V69.4z
		"/>
	<path class="st0" d="M266.8,49.3v49.9c0,1.4,0.3,2.7,0.8,3.9c0.5,1.2,1.2,2.3,2.1,3.2c0.9,0.9,2,1.6,3.2,2.1
		c1.2,0.5,2.5,0.8,3.9,0.8c1.6,0,3.4-0.8,5.6-2.5c2.1-1.7,4-3.8,5.6-6.3V49.3h20.8v70.8h-20.8v-6.6c-2.7,2.4-5.6,4.3-8.7,5.8
		c-3.1,1.4-6.1,2.2-9,2.2c-3.4,0-6.6-0.6-9.5-1.7c-2.9-1.2-5.5-2.7-7.6-4.8c-2.2-2-3.9-4.4-5.1-7.1c-1.2-2.7-1.9-5.6-1.9-8.7V49.3
		H266.8z"/>
	<path class="st0" d="M345.8,120.1h-20.7V20.8l20.7-5.9V120.1z"/>
	<path class="st0" d="M394.3,121.7c-4.9,0-9.4-0.9-13.7-2.8s-8-4.4-11.2-7.5c-3.2-3.2-5.7-6.9-7.6-11.1c-1.9-4.2-2.8-8.6-2.8-13.3
		c0-5.6,0.8-10.8,2.5-15.6c1.7-4.8,4.1-8.9,7.2-12.4s6.9-6.2,11.2-8.2c4.4-2,9.2-3,14.6-3c4.8,0,9.2,0.8,13.1,2.4
		c3.9,1.6,7.3,3.7,10.1,6.5c2.8,2.7,5,5.9,6.6,9.6c1.6,3.7,2.4,7.6,2.4,11.8h-47.4c0.2,3.9,0.7,7.6,1.7,11.2
		c0.9,3.6,2.2,6.7,3.8,9.4c1.6,2.7,3.5,4.9,5.7,6.5c2.2,1.6,4.6,2.4,7.2,2.4c2.3,0,4.6-0.4,6.8-1.2c2.2-0.8,4.2-1.9,6.1-3.3
		c1.9-1.4,3.5-3.1,4.8-5c1.4-1.9,2.4-3.9,3-6l10.6,1.7c-1,3.8-2.7,7.5-5.1,10.8c-2.4,3.4-5.1,6.4-8.2,8.9c-3.1,2.5-6.6,4.5-10.3,6
		S398.1,121.7,394.3,121.7z M403.1,70.8c-0.2-2.1-0.6-4-1.3-5.7c-0.7-1.7-1.5-3.2-2.6-4.4c-1.1-1.2-2.4-2.2-3.8-2.9
		c-1.4-0.7-3-1-4.6-1c-1.3,0-2.5,0.3-3.8,1c-1.2,0.7-2.4,1.6-3.4,2.8s-1.9,2.7-2.5,4.4c-0.7,1.7-1.2,3.7-1.4,5.8H403.1z"/>
</g>
</svg>
